<?xml version="1.0" standalone="no"?>
<!DOCTYPE svg PUBLIC "-//W3C//DTD SVG 20010904//EN"
 "http://www.w3.org/TR/2001/REC-SVG-20010904/DTD/svg10.dtd">
<svg version="1.0" xmlns="http://www.w3.org/2000/svg"
 width="300.000000pt" height="300.000000pt" viewBox="0 0 300.000000 300.000000"
 preserveAspectRatio="xMidYMid meet">
<metadata>
Created by potrace 1.11, written by Peter Selinger 2001-2013
</metadata>
<g transform="translate(0.000000,300.000000) scale(0.100000,-0.100000)"
fill="#000000" stroke="none">
<path d="M770 2513 c-58 -4 -68 -7 -97 -38 -17 -18 -42 -36 -55 -40 -16 -4
-19 -3 -9 3 7 5 12 15 9 22 -2 8 -12 5 -30 -9 -15 -12 -33 -20 -40 -19 -7 2
-12 -2 -11 -9 3 -13 -57 -63 -76 -63 -6 0 -16 -11 -23 -24 -8 -20 -16 -24 -37
-20 -14 3 -34 -1 -44 -8 -15 -11 -16 -17 -5 -45 15 -40 0 -65 -26 -43 -24 19
-33 -16 -11 -40 10 -11 15 -26 12 -34 -4 -9 -3 -18 2 -20 13 -8 6 -45 -12 -66
-9 -11 -13 -22 -8 -24 11 -7 24 -112 25 -199 1 -62 4 -71 29 -92 15 -13 27
-28 27 -33 0 -5 6 -15 14 -21 7 -6 21 -36 31 -67 12 -40 20 -53 28 -45 8 8 17
5 31 -8 32 -28 89 -35 108 -14 19 21 25 98 10 133 -5 14 -15 38 -21 54 -11 28
-12 28 -31 11 -19 -17 -21 -17 -59 16 -38 33 -39 37 -40 96 -1 73 5 93 28 93
19 0 61 -40 61 -58 0 -16 16 -23 34 -16 13 5 16 21 16 75 0 85 16 126 63 162
42 32 51 34 37 7 -6 -11 -8 -20 -4 -20 3 0 1 -7 -6 -15 -7 -8 -21 -15 -32 -15
-16 0 -36 -25 -27 -34 2 -2 25 -1 51 3 31 5 49 4 52 -3 3 -7 5 -6 5 2 1 7 14
12 31 12 30 0 36 6 22 26 -11 17 -35 22 -61 12 -23 -8 -23 -7 -18 29 11 65 97
116 159 94 18 -6 53 -8 78 -5 54 7 90 -7 90 -35 0 -10 7 -24 15 -31 8 -7 15
-23 15 -36 0 -35 18 -74 34 -74 19 0 62 95 68 152 4 37 2 51 -13 64 -10 9 -15
23 -12 31 9 22 -18 63 -41 64 -12 0 -15 3 -8 6 6 2 12 9 12 15 0 6 -6 8 -14 5
-9 -3 -21 4 -30 19 -9 13 -23 24 -32 24 -22 0 -42 22 -37 41 6 21 -10 31 -62
40 -73 14 -99 15 -165 12z m75 -13 c3 -5 1 -10 -4 -10 -6 0 -11 5 -11 10 0 6
2 10 4 10 3 0 8 -4 11 -10z m-140 -40 c-3 -5 -12 -10 -18 -10 -7 0 -6 4 3 10
19 12 23 12 15 0z m265 0 c0 -5 -9 -10 -20 -10 -11 0 -20 5 -20 10 0 6 9 10
20 10 11 0 20 -4 20 -10z m-576 -185 c-4 -8 -10 -15 -15 -15 -5 0 -9 7 -9 15
0 8 7 15 15 15 9 0 12 -6 9 -15z"/>
<path d="M2263 2362 c-12 -2 -20 -9 -18 -15 6 -16 0 -23 -78 -90 -60 -52 -74
-72 -125 -175 -31 -64 -67 -127 -79 -140 -13 -13 -26 -41 -29 -60 -10 -51 4
-332 17 -348 8 -10 5 -11 -13 -7 -21 4 -22 3 -5 -10 9 -8 17 -26 17 -40 0 -14
4 -28 10 -32 5 -3 9 -18 8 -33 -1 -15 2 -45 7 -66 5 -28 5 -37 -3 -32 -15 9
-35 83 -26 97 10 16 -36 111 -57 118 -7 2 -9 -1 -5 -8 4 -6 -1 -19 -10 -29
-10 -9 -19 -15 -20 -12 -1 3 -12 -7 -24 -22 -13 -17 -31 -28 -46 -28 -16 0
-24 -6 -24 -17 -1 -10 -7 -1 -14 19 -8 21 -21 49 -30 63 -37 57 -66 115 -66
134 0 26 -43 39 -66 20 -21 -17 -14 -53 12 -57 12 -2 32 -14 45 -28 23 -25 23
-25 5 -59 -14 -25 -28 -36 -52 -41 -23 -4 -36 -14 -44 -34 -7 -16 -9 -34 -5
-40 4 -6 0 -19 -9 -28 -9 -11 -14 -33 -13 -57 2 -38 0 -40 -28 -43 -16 -2 -34
-8 -40 -13 -7 -7 -2 -8 15 -5 30 7 60 -8 45 -23 -6 -6 -32 -12 -58 -13 -26 -2
-47 -6 -47 -10 0 -15 13 -38 21 -38 12 0 49 -38 47 -47 0 -5 2 -16 7 -26 9
-21 -18 -46 -49 -47 -15 0 -16 -2 -6 -15 10 -12 15 -13 21 -4 6 10 11 10 21 1
11 -9 18 -9 28 1 10 10 12 9 7 -4 -4 -13 -1 -15 14 -12 10 3 19 14 19 24 0 43
46 32 56 -14 9 -43 -20 -66 -80 -62 -34 2 -43 -1 -39 -11 10 -26 66 -28 128
-4 l29 11 -19 -22 c-11 -12 -35 -28 -53 -36 -53 -22 -27 -38 65 -38 70 0 78 2
75 19 -3 17 -1 16 19 -3 15 -14 36 -21 60 -21 27 0 45 -7 63 -25 l25 -24 20
42 c12 24 21 53 21 65 0 12 5 22 10 22 6 0 10 -9 10 -21 0 -12 4 -17 11 -14 6
4 8 14 5 22 -3 8 -1 11 4 8 6 -3 10 -1 10 5 0 7 -9 14 -20 17 -22 6 -26 17
-36 118 -13 136 -5 157 56 153 21 -2 38 -5 38 -8 -1 -19 3 -30 12 -30 6 0 10
6 8 13 -9 49 42 86 131 93 109 10 100 -2 114 149 2 17 -3 20 -36 17 -103 -9
-237 185 -237 341 0 65 18 114 39 109 7 -1 26 6 42 15 28 17 32 17 59 1 35
-20 39 -13 8 13 -25 23 -61 25 -78 4 -7 -8 -17 -15 -23 -15 -7 0 0 12 15 27
26 26 28 26 68 13 35 -12 43 -12 50 0 12 20 5 27 -35 34 -19 4 -35 9 -35 12 0
2 14 32 31 66 l31 60 40 -5 c22 -3 48 -13 58 -22 16 -15 26 -16 61 -7 29 7 48
7 65 0 29 -13 128 -133 139 -167 l7 -23 -28 20 c-45 32 -198 33 -179 1 4 -5
19 -9 35 -9 16 0 63 -5 105 -11 l76 -12 -2 -78 c-1 -44 1 -82 4 -85 3 -3 18 1
35 10 16 8 32 12 36 9 3 -4 6 -27 6 -51 0 -40 -5 -50 -41 -84 -37 -35 -43 -38
-57 -25 -13 14 -18 12 -46 -16 -17 -18 -42 -40 -54 -49 -19 -15 -22 -27 -22
-80 1 -67 15 -145 30 -163 6 -8 30 -9 72 -4 82 10 105 -4 157 -95 40 -71 47
-92 77 -239 8 -42 20 -75 25 -72 5 4 9 13 9 21 0 8 4 14 9 14 4 0 8 12 8 28 0
15 1 208 2 429 2 393 2 406 -24 560 -14 87 -31 172 -37 188 -12 33 -56 85 -71
85 -5 0 -17 8 -26 18 -27 30 -93 56 -146 57 -54 1 -61 4 -115 46 -41 33 -77
46 -107 41z m-630 -1172 c16 0 18 -5 12 -27 -7 -29 -42 -83 -53 -83 -16 0 -52
32 -52 46 0 26 52 86 64 74 5 -5 19 -10 29 -10z m-13 -150 c0 -11 -4 -20 -10
-20 -5 0 -10 9 -10 20 0 11 5 20 10 20 6 0 10 -9 10 -20z"/>
<path d="M903 2105 c0 -8 7 -17 16 -19 27 -8 118 -4 132 5 25 16 -11 29 -82
29 -51 0 -66 -3 -66 -15z"/>
<path d="M2380 2076 c0 -2 7 -7 16 -10 8 -3 12 -2 9 4 -6 10 -25 14 -25 6z"/>
<path d="M977 2063 l32 -4 -22 -22 c-12 -12 -28 -21 -34 -19 -18 4 -16 -13 3
-32 18 -19 20 -19 45 -6 14 8 19 21 19 50 0 40 0 40 -37 38 -37 -1 -37 -1 -6
-5z"/>
<path d="M909 2038 c-9 -17 -8 -33 7 -80 11 -32 22 -58 26 -58 4 0 -3 27 -15
59 -21 58 -21 60 -3 80 11 12 14 21 8 21 -6 0 -16 -10 -23 -22z"/>
<path d="M670 2018 c-23 -26 -27 -46 -4 -28 16 14 38 50 30 50 -3 0 -14 -10
-26 -22z"/>
<path d="M733 2007 c1 -16 -3 -22 -15 -21 -10 1 -18 -4 -18 -12 0 -16 43 -29
66 -20 23 9 14 57 -13 67 -19 7 -22 5 -20 -14z"/>
<path d="M2072 1898 c-17 -17 -15 -38 4 -59 13 -14 21 -16 35 -8 24 13 25 47
2 45 -11 0 -17 6 -17 17 2 20 -7 22 -24 5z"/>
<path d="M2332 1892 c-21 -14 -27 -76 -8 -91 18 -15 52 -7 60 15 3 8 2 13 -3
10 -7 -5 -51 37 -51 49 0 14 80 3 103 -15 20 -16 27 -17 36 -6 9 10 0 16 -40
29 -57 19 -78 21 -97 9z"/>
<path d="M974 1811 c3 -5 -9 -14 -26 -20 -18 -7 -34 -8 -36 -3 -1 5 -14 7 -27
4 -34 -6 -21 -22 19 -22 38 0 99 27 91 41 -4 5 -11 9 -16 9 -6 0 -8 -4 -5 -9z"/>
<path d="M780 1733 c0 -5 5 -15 10 -23 8 -12 10 -11 10 8 0 12 -4 22 -10 22
-5 0 -10 -3 -10 -7z"/>
<path d="M997 1704 c-4 -4 -7 -17 -7 -28 1 -19 1 -20 11 -3 11 19 8 43 -4 31z"/>
<path d="M2150 1670 c0 -5 6 -10 14 -10 8 0 23 -3 33 -6 16 -5 16 -4 -1 10
-22 18 -46 21 -46 6z"/>
<path d="M634 1629 c8 -43 20 -51 121 -86 111 -38 154 -46 210 -38 57 9 87 37
83 78 -3 36 -34 50 -45 20 -7 -22 -43 -63 -55 -63 -4 0 -8 9 -8 21 0 16 4 19
23 14 17 -5 19 -4 7 4 -23 17 -63 14 -57 -4 8 -19 -49 -48 -72 -36 -9 5 -14
13 -11 17 3 5 -7 15 -22 24 -23 12 -31 13 -47 3 -13 -8 -22 -9 -26 -3 -3 6
-16 10 -28 11 -18 0 -19 2 -5 7 15 6 14 10 -7 35 -13 15 -34 27 -46 27 -19 0
-21 -4 -15 -31z m46 -14 c0 -8 -4 -15 -9 -15 -13 0 -22 16 -14 24 11 11 23 6
23 -9z m233 -82 c-7 -2 -19 -2 -25 0 -7 3 -2 5 12 5 14 0 19 -2 13 -5z"/>
<path d="M810 1620 c0 -6 8 -11 18 -11 9 -1 33 -3 52 -5 25 -2 29 -1 15 5 -37
15 -85 21 -85 11z"/>
<path d="M2280 1610 c-8 -5 -50 -10 -92 -10 -43 0 -78 -4 -78 -8 0 -10 33 -27
68 -37 12 -4 30 -17 38 -31 18 -27 59 -32 68 -9 3 8 3 28 0 44 -4 20 -1 30 10
34 9 4 16 11 16 17 0 13 -10 13 -30 0z"/>
<path d="M1143 1543 c-38 -35 -53 -112 -16 -81 14 11 15 10 9 -9 -4 -12 -2
-24 4 -28 5 -3 10 1 10 10 0 8 11 20 24 26 25 12 34 37 28 77 -4 27 -32 29
-59 5z"/>
<path d="M620 1491 c0 -6 4 -13 10 -16 6 -3 7 1 4 9 -7 18 -14 21 -14 7z"/>
<path d="M2365 1480 c-3 -5 -2 -10 4 -10 5 0 13 5 16 10 3 6 2 10 -4 10 -5 0
-13 -4 -16 -10z"/>
<path d="M1385 1470 c-3 -5 -1 -10 4 -10 6 0 11 -15 12 -32 0 -18 3 -26 6 -18
3 8 17 26 30 39 13 13 21 27 18 30 -4 3 -11 -1 -16 -9 -8 -11 -12 -12 -16 -2
-6 14 -29 16 -38 2z"/>
<path d="M615 1440 c3 -5 8 -10 11 -10 2 0 4 5 4 10 0 6 -5 10 -11 10 -5 0 -7
-4 -4 -10z"/>
<path d="M1176 1431 c-4 -7 -5 -15 -2 -18 9 -9 19 4 14 18 -4 11 -6 11 -12 0z"/>
<path d="M1278 1379 c-24 -14 -23 -56 1 -64 21 -6 66 8 77 26 4 7 -2 20 -16
31 -25 20 -37 22 -62 7z"/>
<path d="M1190 1282 c0 -77 -23 -168 -48 -195 -31 -33 -15 -52 26 -31 18 8 32
20 32 25 0 10 32 -6 63 -30 9 -8 20 -12 23 -9 8 9 -36 91 -57 106 -23 16 -24
40 -5 68 8 11 15 39 14 61 0 33 -5 43 -24 52 -24 10 -24 10 -24 -47z"/>
<path d="M982 1275 c-10 -21 -9 -27 3 -31 23 -9 18 -24 -9 -24 -13 0 -26 -5
-28 -12 -5 -13 -38 -4 -38 11 0 5 6 11 13 14 6 2 1 2 -11 0 -13 -2 -21 0 -18
5 11 18 -64 42 -132 42 -93 -1 -139 -13 -176 -49 -17 -16 -49 -36 -71 -43 -36
-12 -40 -16 -38 -43 2 -19 -1 -25 -6 -17 -12 19 -91 -70 -91 -103 0 -15 -7
-34 -16 -42 -11 -12 -12 -18 -4 -23 20 -12 -8 -175 -38 -228 -20 -35 -23 -49
-15 -75 7 -28 14 -32 46 -35 44 -4 50 -22 6 -22 l-30 0 33 -46 c56 -78 98
-123 170 -182 109 -90 192 -150 206 -151 6 -1 12 -5 12 -11 0 -5 7 -10 16 -10
14 0 14 1 0 16 -9 8 -21 24 -26 35 -6 10 -19 19 -30 19 -46 0 -66 20 -78 78
-32 160 -32 166 0 191 21 17 21 18 3 49 -15 25 -16 33 -6 46 21 26 50 20 57
-11 15 -72 50 -95 64 -43 13 49 0 88 -36 109 -19 11 -39 32 -44 47 -18 46 1
46 36 -1 27 -35 41 -45 64 -45 32 0 70 33 70 62 0 22 -68 54 -84 38 -12 -12
-39 53 -38 93 1 18 -3 25 -10 21 -7 -5 -9 -2 -6 7 5 12 -1 14 -23 11 -25 -4
-28 -2 -23 14 4 11 10 24 14 29 13 18 8 69 -8 88 -13 14 -24 17 -54 12 -42 -7
-43 -7 -26 30 8 18 19 25 39 25 15 0 31 5 35 12 5 7 10 3 16 -13 9 -24 9 -24
21 -3 7 11 28 34 47 51 29 25 42 29 72 25 21 -2 43 -10 49 -18 6 -8 18 -14 26
-14 28 0 41 -24 34 -66 -4 -24 -9 -34 -14 -26 -5 6 -15 12 -23 12 -8 0 -12 -5
-8 -11 4 -7 -2 -9 -17 -7 -20 2 -25 -2 -27 -24 -3 -24 0 -28 21 -28 14 0 30 7
37 15 20 24 21 13 4 -61 -9 -38 -17 -89 -18 -114 -1 -42 1 -45 27 -48 23 -3
27 -8 27 -35 0 -18 -9 -49 -20 -70 -11 -20 -20 -48 -20 -62 0 -15 -11 -36 -25
-49 -25 -23 -34 -69 -15 -81 18 -11 47 29 63 85 9 30 27 70 41 89 14 19 27 39
29 45 5 14 54 -30 73 -66 9 -17 10 -29 4 -33 -6 -3 -10 -4 -10 -1 0 7 -36 -21
-65 -52 -12 -12 -27 -22 -32 -22 -6 0 -20 -9 -32 -19 -13 -11 -28 -22 -34 -24
-9 -3 -9 -8 0 -19 7 -8 10 -18 7 -21 -4 -3 3 -18 15 -33 11 -15 21 -36 21 -48
0 -12 7 -31 15 -42 8 -10 15 -29 15 -41 0 -13 6 -23 13 -23 8 0 22 -18 32 -40
10 -22 23 -40 29 -40 6 0 3 -5 -6 -11 -9 -5 -15 -15 -12 -23 15 -39 -96 -53
-117 -15 -5 11 -19 19 -29 19 -11 0 -30 6 -41 13 -17 9 -23 9 -26 0 -3 -7 -18
-13 -34 -13 -36 0 -37 -11 -1 -31 37 -21 61 -14 54 14 -5 21 -4 21 15 5 11
-10 25 -18 31 -18 7 0 12 -4 12 -10 0 -5 13 -10 29 -10 17 0 33 -5 36 -11 8
-12 111 -59 130 -59 7 0 16 -11 19 -25 7 -28 46 -36 46 -10 0 8 4 15 10 15 5
0 7 -6 4 -14 -5 -12 53 -15 395 -16 284 0 401 2 401 10 0 6 4 8 10 5 6 -3 9 4
9 17 -1 13 1 35 5 49 5 16 3 29 -3 34 -12 7 -14 3 -30 -65 -10 -44 -10 -44 -5
-5 4 31 2 37 -6 25 -9 -12 -10 -10 -4 10 4 14 11 27 15 28 5 2 6 9 3 14 -4 7
-2 8 4 4 8 -5 12 1 12 16 0 13 5 29 12 36 9 9 9 12 0 12 -7 0 -11 6 -9 13 1 6
-4 11 -10 10 -7 -2 -13 1 -13 7 0 5 -11 -2 -25 -15 -28 -29 -88 -34 -119 -10
-11 8 -29 16 -40 16 -17 1 -18 2 -3 6 9 2 17 8 17 13 0 5 -13 5 -28 -1 -33
-11 -64 -8 -86 10 -12 10 -16 11 -16 1 0 -10 -4 -9 -17 1 -15 11 -16 11 -5 -1
6 -8 12 -21 12 -30 -1 -12 -2 -12 -11 3 -8 13 -14 15 -29 7 -10 -5 -28 -10
-40 -10 -27 0 -117 38 -149 62 -28 21 -73 25 -65 5 2 -7 -9 -28 -26 -47 -16
-18 -30 -40 -30 -47 0 -7 -5 -13 -11 -13 -7 0 -9 -10 -7 -25 4 -20 1 -25 -14
-25 -27 0 -60 19 -53 31 4 5 1 9 -5 9 -6 0 -10 -10 -8 -22 3 -20 10 -24 60
-28 31 -3 60 -9 64 -13 9 -9 -25 -36 -46 -37 -8 0 -30 -9 -49 -21 -18 -11 -36
-18 -39 -15 -10 10 19 35 49 41 42 9 46 25 5 25 -49 0 -66 9 -66 35 0 13 -7
26 -15 29 -14 5 -14 8 1 31 9 14 14 34 11 44 -2 10 -1 25 4 32 4 8 3 19 -3 26
-8 10 -6 13 5 13 23 0 32 21 13 32 -10 5 -16 21 -16 41 1 18 -1 52 -4 77 -2
25 0 50 5 56 7 8 1 18 -18 32 -24 18 -26 22 -11 27 16 6 16 9 -2 43 -23 46
-35 112 -20 112 5 0 10 7 10 15 0 8 4 15 9 15 4 0 7 -24 5 -52 -1 -29 0 -43 2
-30 3 12 9 22 14 22 5 0 8 17 7 38 -2 31 2 37 19 40 12 2 30 12 40 23 16 18
16 19 -2 19 -28 0 -85 38 -91 61 -6 23 -10 24 -30 3 -23 -22 -56 -14 -67 18
-12 35 6 78 34 78 11 0 20 5 20 10 0 6 6 10 13 10 21 0 19 59 -4 109 -41 90
-54 111 -66 111 -7 0 -10 7 -7 15 4 8 1 15 -5 15 -6 0 -11 7 -11 16 0 8 4 13
9 10 5 -4 7 3 4 14 -7 27 -17 25 -31 -5z m-332 -231 c0 -8 -5 -12 -10 -9 -6 4
-8 11 -5 16 9 14 15 11 15 -7z m1005 -824 c3 -5 1 -10 -4 -10 -6 0 -11 5 -11
10 0 6 2 10 4 10 3 0 8 -4 11 -10z m305 -40 c0 -5 -4 -12 -10 -15 -5 -3 -10 2
-10 12 0 15 -2 16 -10 3 -5 -8 -10 -10 -10 -4 0 6 3 13 6 17 8 7 34 -3 34 -13z
m-300 -146 c0 -2 -20 -4 -45 -4 -44 0 -62 15 -27 22 17 4 72 -10 72 -18z"/>
<path d="M2308 1104 c-31 -44 -51 -47 -28 -4 10 19 9 20 -17 13 -15 -4 -63 -7
-105 -7 -72 1 -93 -6 -68 -21 6 -3 10 -11 10 -17 0 -6 -8 -4 -17 5 -17 14 -18
13 -20 -16 -2 -21 -16 -44 -43 -72 -22 -22 -40 -46 -40 -53 0 -7 -5 -12 -10
-12 -6 0 -9 -3 -8 -7 3 -18 -15 -41 -28 -36 -27 10 -26 -28 4 -109 17 -46 31
-75 31 -66 1 16 30 17 144 9 4 -1 17 -17 29 -37 20 -34 22 -35 35 -18 38 52
53 63 90 64 21 1 54 2 73 3 28 2 37 -3 45 -20 5 -13 15 -23 22 -23 6 0 15 -5
19 -11 5 -9 -4 -10 -32 -5 -28 5 -35 4 -24 -3 8 -6 22 -11 30 -11 8 0 26 -9
40 -20 l25 -20 -35 14 c-19 7 -46 17 -60 20 l-25 7 25 -20 c33 -27 17 -27 -21
-1 -28 21 -28 21 -40 1 -7 -10 -19 -17 -26 -14 -7 3 -13 1 -13 -5 0 -6 -8 -8
-19 -5 -10 3 -22 0 -25 -6 -4 -6 -22 -11 -41 -11 -33 0 -105 -34 -105 -50 0
-4 7 -13 15 -20 12 -10 18 -10 30 0 8 6 24 13 37 15 13 1 43 7 68 13 33 8 46
8 52 -1 13 -20 9 -35 -14 -51 -25 -18 -68 -21 -68 -6 0 5 -22 -3 -48 -19 -27
-16 -58 -32 -70 -35 -11 -4 -23 -14 -26 -23 -11 -27 9 -36 48 -23 39 13 60 6
52 -17 -3 -8 -1 -11 4 -8 6 4 10 -12 10 -38 0 -38 -3 -46 -22 -50 -13 -4 -32
-13 -42 -20 -20 -14 -20 -15 -1 -77 l19 -63 -28 -24 c-17 -14 -32 -21 -38 -15
-4 4 -13 46 -18 92 -8 74 -20 119 -20 77 0 -8 -9 -37 -20 -62 -16 -36 -18 -51
-9 -61 7 -9 9 -35 6 -71 -3 -32 -3 -47 1 -34 6 19 9 21 19 10 13 -16 66 -17
85 -1 8 6 45 18 83 27 117 27 140 33 130 34 -5 0 6 9 25 19 19 10 53 29 75 42
22 12 58 32 80 43 45 23 115 89 115 109 1 15 34 58 47 58 13 1 48 34 56 53 3
9 14 17 23 17 10 0 15 3 11 6 -3 3 8 28 24 55 16 28 29 54 29 58 0 5 6 14 13
20 14 11 20 49 21 137 1 53 -19 93 -37 75 -5 -5 -16 -7 -23 -4 -10 4 -14 -4
-14 -28 0 -22 -9 -42 -27 -61 -21 -22 -23 -28 -10 -28 9 0 17 -5 17 -11 0 -16
-42 -3 -87 26 -48 31 -123 106 -123 123 0 7 -13 31 -30 53 -17 24 -32 60 -36
87 -4 26 -9 52 -13 57 -3 6 -6 19 -6 29 0 11 -6 21 -12 23 -8 3 -13 -4 -13
-15 0 -11 -6 -23 -12 -25 -10 -4 -10 -6 0 -6 17 -1 15 -31 -2 -31 -7 0 -28 14
-45 32 -22 22 -28 35 -20 44 5 6 9 16 8 20 -1 5 0 11 1 14 7 15 6 70 -1 70 -4
0 -23 -21 -41 -46z m-86 -112 c-2 -7 -11 -11 -18 -8 -8 3 -13 0 -11 -7 1 -7
-6 -11 -18 -9 -31 5 -37 17 -24 45 11 25 12 25 44 9 19 -10 30 -22 27 -30z
m-142 -22 c3 -13 4 -38 2 -57 -3 -27 -7 -31 -20 -24 -9 5 -26 5 -40 0 -14 -5
-27 -7 -30 -5 -3 3 6 10 20 15 28 11 38 29 38 73 0 35 22 34 30 -2z m158 -73
c9 -33 7 -46 -16 -98 -19 -44 -33 -61 -51 -66 -30 -7 -46 12 -55 70 -6 34 -9
39 -17 25 -20 -35 -79 -16 -79 25 0 17 5 19 31 13 37 -7 59 7 59 39 0 32 9 36
37 18 23 -15 26 -15 46 5 25 25 31 21 45 -31z m167 -37 c12 -20 -6 -50 -30
-50 -14 0 -41 -14 -61 -32 -26 -23 -40 -29 -51 -22 -26 16 -19 29 17 32 37 4
60 17 60 35 0 5 -8 3 -18 -6 -23 -21 -46 -22 -62 -2 -10 12 -10 18 0 30 18 21
32 19 25 -5 -4 -12 -2 -20 5 -20 7 0 14 9 17 19 4 16 11 18 39 14 22 -4 34 -2
34 6 0 14 17 15 25 1z m-395 -19 c0 -27 27 -51 57 -51 32 0 25 -24 -8 -28 -48
-6 -126 76 -86 91 25 11 37 7 37 -12z m-40 -50 c0 -6 -4 -13 -10 -16 -5 -3
-10 1 -10 9 0 9 5 16 10 16 6 0 10 -4 10 -9z m495 -81 c-3 -5 -16 -10 -28 -10
-18 0 -19 2 -7 10 20 13 43 13 35 0z m-292 -27 c-3 -7 -6 -13 -8 -13 -2 0 -5
6 -8 13 -3 8 1 14 8 14 7 0 11 -6 8 -14z m172 -71 c-3 -3 -11 0 -18 7 -9 10
-8 11 6 5 10 -3 15 -9 12 -12z m-35 -165 c0 -8 -11 -19 -25 -25 -20 -9 -25 -9
-25 2 0 10 26 30 48 35 1 1 2 -5 2 -12z"/>
<path d="M2055 840 c3 -5 8 -10 11 -10 2 0 4 5 4 10 0 6 -5 10 -11 10 -5 0 -7
-4 -4 -10z"/>
<path d="M2150 805 c0 -9 6 -12 15 -9 8 4 12 10 9 15 -8 14 -24 10 -24 -6z"/>
<path d="M190 1114 l-25 -15 25 7 c14 3 29 10 35 15 15 14 -7 10 -35 -7z"/>
<path d="M1168 853 c25 -24 42 -30 42 -13 0 9 -14 14 -24 8 -2 -2 -12 4 -23
12 -10 8 -8 5 5 -7z"/>
<path d="M311 772 c-7 -13 -11 -26 -8 -28 8 -8 29 25 25 38 -3 8 -9 4 -17 -10z"/>
<path d="M1175 490 c-3 -5 -2 -10 4 -10 7 0 7 -8 1 -26 -7 -16 -7 -32 0 -44 5
-10 9 -29 7 -41 -1 -12 3 -23 8 -25 9 -4 14 15 15 64 1 28 -12 82 -20 87 -5 3
-11 1 -15 -5z"/>
<path d="M1966 445 c-3 -8 -2 -23 1 -32 5 -12 2 -15 -9 -11 -16 7 -38 -9 -38
-26 0 -5 7 -1 15 10 11 15 14 16 15 4 0 -9 -3 -20 -7 -26 -5 -5 2 1 15 14 13
14 21 31 17 40 -3 8 -1 19 6 22 7 5 8 10 1 14 -5 3 -12 -1 -16 -9z"/>
<path d="M1780 375 c-7 -8 -17 -12 -23 -8 -5 3 -7 1 -4 -4 10 -16 67 -24 85
-13 16 9 16 9 1 10 -9 0 -19 7 -23 15 -7 19 -20 19 -36 0z"/>
<path d="M1194 285 c-4 -9 -7 -28 -8 -43 -1 -15 -7 -37 -14 -49 -16 -29 -15
-38 3 -23 8 6 14 15 13 18 -1 4 1 14 5 22 7 17 15 90 10 90 -2 0 -6 -7 -9 -15z"/>
<path d="M1678 258 c5 -5 16 -8 23 -6 8 3 3 7 -10 11 -17 4 -21 3 -13 -5z"/>
<path d="M1808 243 c7 -3 16 -2 19 1 4 3 -2 6 -13 5 -11 0 -14 -3 -6 -6z"/>
<path d="M2631 214 c0 -11 3 -14 6 -6 3 7 2 16 -1 19 -3 4 -6 -2 -5 -13z"/>
<path d="M2690 206 c0 -8 7 -16 15 -20 10 -4 15 1 15 14 0 11 -7 20 -15 20 -8
0 -15 -6 -15 -14z"/>
</g>
</svg>
